<mxfile host="app.diagrams.net" agent="Mozilla/5.0 (Windows NT 10.0; Win64; x64) AppleWebKit/537.36 (KHTML, like Gecko) Chrome/130.0.0.0 Safari/537.36" version="24.8.6">
  <diagram name="페이지-1" id="KeZ6YxqLoTRsvLdYiOI_">
    <mxGraphModel dx="1647" dy="890" grid="1" gridSize="10" guides="1" tooltips="1" connect="1" arrows="1" fold="1" page="1" pageScale="1" pageWidth="827" pageHeight="1169" math="0" shadow="0">
      <root>
        <mxCell id="0" />
        <mxCell id="1" parent="0" />
        <mxCell id="a9fjt9Ga8EviUBLG8wG8-40" value="" style="rounded=0;whiteSpace=wrap;html=1;fillColor=#f5f6ff;" vertex="1" parent="1">
          <mxGeometry y="420" width="1320" height="500" as="geometry" />
        </mxCell>
        <mxCell id="a9fjt9Ga8EviUBLG8wG8-39" value="" style="rounded=0;whiteSpace=wrap;html=1;fillColor=#FAFFED;" vertex="1" parent="1">
          <mxGeometry y="80" width="1320" height="340" as="geometry" />
        </mxCell>
        <mxCell id="a9fjt9Ga8EviUBLG8wG8-10" style="edgeStyle=orthogonalEdgeStyle;rounded=0;orthogonalLoop=1;jettySize=auto;html=1;exitX=1;exitY=0.5;exitDx=0;exitDy=0;entryX=0;entryY=0.5;entryDx=0;entryDy=0;" edge="1" parent="1" source="a9fjt9Ga8EviUBLG8wG8-2" target="a9fjt9Ga8EviUBLG8wG8-5">
          <mxGeometry relative="1" as="geometry" />
        </mxCell>
        <mxCell id="a9fjt9Ga8EviUBLG8wG8-2" value="" style="rounded=0;whiteSpace=wrap;html=1;" vertex="1" parent="1">
          <mxGeometry x="280" y="160" width="200" height="120" as="geometry" />
        </mxCell>
        <mxCell id="a9fjt9Ga8EviUBLG8wG8-9" style="edgeStyle=orthogonalEdgeStyle;rounded=0;orthogonalLoop=1;jettySize=auto;html=1;exitX=1;exitY=0.5;exitDx=0;exitDy=0;entryX=0;entryY=0.5;entryDx=0;entryDy=0;" edge="1" parent="1" source="a9fjt9Ga8EviUBLG8wG8-4" target="a9fjt9Ga8EviUBLG8wG8-2">
          <mxGeometry relative="1" as="geometry" />
        </mxCell>
        <mxCell id="a9fjt9Ga8EviUBLG8wG8-4" value="" style="rounded=1;whiteSpace=wrap;html=1;" vertex="1" parent="1">
          <mxGeometry x="80" y="160" width="120" height="120" as="geometry" />
        </mxCell>
        <mxCell id="a9fjt9Ga8EviUBLG8wG8-11" style="edgeStyle=orthogonalEdgeStyle;rounded=0;orthogonalLoop=1;jettySize=auto;html=1;exitX=1;exitY=0.5;exitDx=0;exitDy=0;entryX=0;entryY=0.5;entryDx=0;entryDy=0;" edge="1" parent="1" source="a9fjt9Ga8EviUBLG8wG8-5" target="a9fjt9Ga8EviUBLG8wG8-6">
          <mxGeometry relative="1" as="geometry" />
        </mxCell>
        <mxCell id="a9fjt9Ga8EviUBLG8wG8-5" value="" style="rounded=0;whiteSpace=wrap;html=1;" vertex="1" parent="1">
          <mxGeometry x="560" y="160" width="200" height="120" as="geometry" />
        </mxCell>
        <mxCell id="a9fjt9Ga8EviUBLG8wG8-12" style="edgeStyle=orthogonalEdgeStyle;rounded=0;orthogonalLoop=1;jettySize=auto;html=1;exitX=1;exitY=0.5;exitDx=0;exitDy=0;" edge="1" parent="1" source="a9fjt9Ga8EviUBLG8wG8-6">
          <mxGeometry relative="1" as="geometry">
            <mxPoint x="1040" y="220" as="targetPoint" />
          </mxGeometry>
        </mxCell>
        <mxCell id="a9fjt9Ga8EviUBLG8wG8-6" value="" style="shape=datastore;whiteSpace=wrap;html=1;" vertex="1" parent="1">
          <mxGeometry x="840" y="160" width="120" height="120" as="geometry" />
        </mxCell>
        <mxCell id="a9fjt9Ga8EviUBLG8wG8-13" style="edgeStyle=orthogonalEdgeStyle;rounded=0;orthogonalLoop=1;jettySize=auto;html=1;exitX=0.5;exitY=1;exitDx=0;exitDy=0;entryX=0.5;entryY=0;entryDx=0;entryDy=0;" edge="1" parent="1" source="a9fjt9Ga8EviUBLG8wG8-7" target="a9fjt9Ga8EviUBLG8wG8-8">
          <mxGeometry relative="1" as="geometry" />
        </mxCell>
        <mxCell id="a9fjt9Ga8EviUBLG8wG8-7" value="" style="rounded=0;whiteSpace=wrap;html=1;fillColor=#f8cecc;strokeColor=#b85450;" vertex="1" parent="1">
          <mxGeometry x="1041" y="160" width="200" height="120" as="geometry" />
        </mxCell>
        <mxCell id="a9fjt9Ga8EviUBLG8wG8-34" style="edgeStyle=orthogonalEdgeStyle;rounded=0;orthogonalLoop=1;jettySize=auto;html=1;entryX=0.5;entryY=0;entryDx=0;entryDy=0;" edge="1" parent="1" source="a9fjt9Ga8EviUBLG8wG8-8" target="a9fjt9Ga8EviUBLG8wG8-31">
          <mxGeometry relative="1" as="geometry" />
        </mxCell>
        <mxCell id="a9fjt9Ga8EviUBLG8wG8-8" value="" style="shape=document;whiteSpace=wrap;html=1;boundedLbl=1;dashed=0;flipH=1;fillColor=#fff2cc;strokeColor=#d6b656;" vertex="1" parent="1">
          <mxGeometry x="1041" y="360" width="199" height="120" as="geometry" />
        </mxCell>
        <mxCell id="a9fjt9Ga8EviUBLG8wG8-14" value="&lt;font style=&quot;font-size: 21px;&quot;&gt;학습 데이터&lt;/font&gt;&lt;div&gt;&lt;font style=&quot;font-size: 21px;&quot;&gt;(원본)&lt;/font&gt;&lt;/div&gt;" style="text;strokeColor=none;align=center;fillColor=none;html=1;verticalAlign=middle;whiteSpace=wrap;rounded=0;" vertex="1" parent="1">
          <mxGeometry x="105" y="182.5" width="70" height="75" as="geometry" />
        </mxCell>
        <mxCell id="a9fjt9Ga8EviUBLG8wG8-15" value="&lt;font style=&quot;font-size: 21px;&quot;&gt;전처리&lt;/font&gt;" style="text;strokeColor=none;align=center;fillColor=none;html=1;verticalAlign=middle;whiteSpace=wrap;rounded=0;" vertex="1" parent="1">
          <mxGeometry x="345" y="205" width="70" height="30" as="geometry" />
        </mxCell>
        <mxCell id="a9fjt9Ga8EviUBLG8wG8-16" value="&lt;font style=&quot;font-size: 21px;&quot;&gt;특징 추출&lt;/font&gt;" style="text;strokeColor=none;align=center;fillColor=none;html=1;verticalAlign=middle;whiteSpace=wrap;rounded=0;" vertex="1" parent="1">
          <mxGeometry x="612.5" y="205" width="95" height="30" as="geometry" />
        </mxCell>
        <mxCell id="a9fjt9Ga8EviUBLG8wG8-17" value="&lt;font style=&quot;font-size: 21px;&quot;&gt;학습 데이터&lt;/font&gt;" style="text;strokeColor=none;align=center;fillColor=none;html=1;verticalAlign=middle;whiteSpace=wrap;rounded=0;" vertex="1" parent="1">
          <mxGeometry x="866.25" y="220" width="67.5" height="30" as="geometry" />
        </mxCell>
        <mxCell id="a9fjt9Ga8EviUBLG8wG8-18" value="&lt;font style=&quot;font-size: 21px;&quot;&gt;학습&lt;/font&gt;&lt;div&gt;&lt;font style=&quot;font-size: 21px;&quot;&gt;(데이터 분석)&lt;/font&gt;&lt;/div&gt;" style="text;strokeColor=none;align=center;fillColor=none;html=1;verticalAlign=middle;whiteSpace=wrap;rounded=0;" vertex="1" parent="1">
          <mxGeometry x="1064.63" y="205" width="152.75" height="30" as="geometry" />
        </mxCell>
        <mxCell id="a9fjt9Ga8EviUBLG8wG8-19" value="&lt;span style=&quot;font-size: 21px;&quot;&gt;결정 함수&lt;/span&gt;" style="text;strokeColor=none;align=center;fillColor=none;html=1;verticalAlign=middle;whiteSpace=wrap;rounded=0;" vertex="1" parent="1">
          <mxGeometry x="1064.1200000000001" y="400" width="152.75" height="30" as="geometry" />
        </mxCell>
        <mxCell id="a9fjt9Ga8EviUBLG8wG8-20" style="edgeStyle=orthogonalEdgeStyle;rounded=0;orthogonalLoop=1;jettySize=auto;html=1;exitX=1;exitY=0.5;exitDx=0;exitDy=0;entryX=0;entryY=0.5;entryDx=0;entryDy=0;" edge="1" parent="1" source="a9fjt9Ga8EviUBLG8wG8-21" target="a9fjt9Ga8EviUBLG8wG8-25">
          <mxGeometry relative="1" as="geometry" />
        </mxCell>
        <mxCell id="a9fjt9Ga8EviUBLG8wG8-21" value="" style="rounded=0;whiteSpace=wrap;html=1;" vertex="1" parent="1">
          <mxGeometry x="280" y="560" width="200" height="120" as="geometry" />
        </mxCell>
        <mxCell id="a9fjt9Ga8EviUBLG8wG8-22" style="edgeStyle=orthogonalEdgeStyle;rounded=0;orthogonalLoop=1;jettySize=auto;html=1;exitX=1;exitY=0.5;exitDx=0;exitDy=0;entryX=0;entryY=0.5;entryDx=0;entryDy=0;" edge="1" parent="1" source="a9fjt9Ga8EviUBLG8wG8-23" target="a9fjt9Ga8EviUBLG8wG8-21">
          <mxGeometry relative="1" as="geometry" />
        </mxCell>
        <mxCell id="a9fjt9Ga8EviUBLG8wG8-23" value="" style="rounded=1;whiteSpace=wrap;html=1;" vertex="1" parent="1">
          <mxGeometry x="80" y="560" width="120" height="120" as="geometry" />
        </mxCell>
        <mxCell id="a9fjt9Ga8EviUBLG8wG8-24" style="edgeStyle=orthogonalEdgeStyle;rounded=0;orthogonalLoop=1;jettySize=auto;html=1;exitX=1;exitY=0.5;exitDx=0;exitDy=0;entryX=0;entryY=0.5;entryDx=0;entryDy=0;" edge="1" parent="1" source="a9fjt9Ga8EviUBLG8wG8-25" target="a9fjt9Ga8EviUBLG8wG8-26">
          <mxGeometry relative="1" as="geometry" />
        </mxCell>
        <mxCell id="a9fjt9Ga8EviUBLG8wG8-25" value="" style="rounded=0;whiteSpace=wrap;html=1;" vertex="1" parent="1">
          <mxGeometry x="560" y="560" width="200" height="120" as="geometry" />
        </mxCell>
        <mxCell id="a9fjt9Ga8EviUBLG8wG8-35" style="edgeStyle=orthogonalEdgeStyle;rounded=0;orthogonalLoop=1;jettySize=auto;html=1;exitX=1;exitY=0.5;exitDx=0;exitDy=0;entryX=0;entryY=0.5;entryDx=0;entryDy=0;" edge="1" parent="1" source="a9fjt9Ga8EviUBLG8wG8-26" target="a9fjt9Ga8EviUBLG8wG8-31">
          <mxGeometry relative="1" as="geometry" />
        </mxCell>
        <mxCell id="a9fjt9Ga8EviUBLG8wG8-26" value="" style="shape=datastore;whiteSpace=wrap;html=1;" vertex="1" parent="1">
          <mxGeometry x="840" y="560" width="120" height="120" as="geometry" />
        </mxCell>
        <mxCell id="a9fjt9Ga8EviUBLG8wG8-27" value="&lt;font style=&quot;font-size: 21px;&quot;&gt;테스트 데이터&lt;/font&gt;&lt;div&gt;&lt;font style=&quot;font-size: 21px;&quot;&gt;(원본)&lt;/font&gt;&lt;/div&gt;" style="text;strokeColor=none;align=center;fillColor=none;html=1;verticalAlign=middle;whiteSpace=wrap;rounded=0;" vertex="1" parent="1">
          <mxGeometry x="105" y="582.5" width="70" height="75" as="geometry" />
        </mxCell>
        <mxCell id="a9fjt9Ga8EviUBLG8wG8-28" value="&lt;font style=&quot;font-size: 21px;&quot;&gt;전처리&lt;/font&gt;" style="text;strokeColor=none;align=center;fillColor=none;html=1;verticalAlign=middle;whiteSpace=wrap;rounded=0;" vertex="1" parent="1">
          <mxGeometry x="345" y="605" width="70" height="30" as="geometry" />
        </mxCell>
        <mxCell id="a9fjt9Ga8EviUBLG8wG8-29" value="&lt;font style=&quot;font-size: 21px;&quot;&gt;특징 추출&lt;/font&gt;" style="text;strokeColor=none;align=center;fillColor=none;html=1;verticalAlign=middle;whiteSpace=wrap;rounded=0;" vertex="1" parent="1">
          <mxGeometry x="612.5" y="605" width="95" height="30" as="geometry" />
        </mxCell>
        <mxCell id="a9fjt9Ga8EviUBLG8wG8-30" value="&lt;font style=&quot;font-size: 21px;&quot;&gt;테스트&lt;/font&gt;&lt;div&gt;&lt;font style=&quot;font-size: 21px;&quot;&gt;데이터&lt;/font&gt;&lt;/div&gt;" style="text;strokeColor=none;align=center;fillColor=none;html=1;verticalAlign=middle;whiteSpace=wrap;rounded=0;" vertex="1" parent="1">
          <mxGeometry x="866.25" y="620" width="67.5" height="30" as="geometry" />
        </mxCell>
        <mxCell id="a9fjt9Ga8EviUBLG8wG8-38" style="edgeStyle=orthogonalEdgeStyle;rounded=0;orthogonalLoop=1;jettySize=auto;html=1;exitX=0.5;exitY=1;exitDx=0;exitDy=0;entryX=0.5;entryY=0;entryDx=0;entryDy=0;" edge="1" parent="1" source="a9fjt9Ga8EviUBLG8wG8-31" target="a9fjt9Ga8EviUBLG8wG8-36">
          <mxGeometry relative="1" as="geometry" />
        </mxCell>
        <mxCell id="a9fjt9Ga8EviUBLG8wG8-31" value="" style="rounded=0;whiteSpace=wrap;html=1;fillColor=#f8cecc;strokeColor=#b85450;" vertex="1" parent="1">
          <mxGeometry x="1041.01" y="560" width="200" height="120" as="geometry" />
        </mxCell>
        <mxCell id="a9fjt9Ga8EviUBLG8wG8-32" value="&lt;span style=&quot;font-size: 21px;&quot;&gt;분류, 회귀,&lt;/span&gt;&lt;div&gt;&lt;span style=&quot;font-size: 21px;&quot;&gt;군집화&lt;/span&gt;&lt;/div&gt;" style="text;strokeColor=none;align=center;fillColor=none;html=1;verticalAlign=middle;whiteSpace=wrap;rounded=0;" vertex="1" parent="1">
          <mxGeometry x="1064.1200000000001" y="605" width="152.75" height="30" as="geometry" />
        </mxCell>
        <mxCell id="a9fjt9Ga8EviUBLG8wG8-36" value="" style="shape=parallelogram;perimeter=parallelogramPerimeter;whiteSpace=wrap;html=1;dashed=0;fillColor=#d5e8d4;strokeColor=#82b366;" vertex="1" parent="1">
          <mxGeometry x="1041" y="760" width="199" height="120" as="geometry" />
        </mxCell>
        <mxCell id="a9fjt9Ga8EviUBLG8wG8-37" value="&lt;span style=&quot;font-size: 21px;&quot;&gt;판단 결과&lt;/span&gt;" style="text;strokeColor=none;align=center;fillColor=none;html=1;verticalAlign=middle;whiteSpace=wrap;rounded=0;" vertex="1" parent="1">
          <mxGeometry x="1064.64" y="805" width="152.75" height="30" as="geometry" />
        </mxCell>
        <mxCell id="a9fjt9Ga8EviUBLG8wG8-41" style="edgeStyle=orthogonalEdgeStyle;rounded=0;orthogonalLoop=1;jettySize=auto;html=1;exitX=0.5;exitY=1;exitDx=0;exitDy=0;" edge="1" parent="1" source="a9fjt9Ga8EviUBLG8wG8-39" target="a9fjt9Ga8EviUBLG8wG8-39">
          <mxGeometry relative="1" as="geometry" />
        </mxCell>
        <mxCell id="a9fjt9Ga8EviUBLG8wG8-42" value="&lt;font style=&quot;font-size: 21px;&quot;&gt;학습단계&lt;/font&gt;" style="text;strokeColor=none;align=center;fillColor=none;html=1;verticalAlign=middle;whiteSpace=wrap;rounded=0;" vertex="1" parent="1">
          <mxGeometry x="612.5" y="90" width="107.5" height="30" as="geometry" />
        </mxCell>
        <mxCell id="a9fjt9Ga8EviUBLG8wG8-43" value="&lt;font style=&quot;font-size: 21px;&quot;&gt;추론(예측)단계&lt;/font&gt;" style="text;strokeColor=none;align=center;fillColor=none;html=1;verticalAlign=middle;whiteSpace=wrap;rounded=0;" vertex="1" parent="1">
          <mxGeometry x="586.25" y="434" width="160" height="30" as="geometry" />
        </mxCell>
      </root>
    </mxGraphModel>
  </diagram>
</mxfile>
